<?xml version="1.0" standalone="no"?>
<!DOCTYPE svg PUBLIC "-//W3C//DTD SVG 20010904//EN"
 "http://www.w3.org/TR/2001/REC-SVG-20010904/DTD/svg10.dtd">
<svg version="1.0" xmlns="http://www.w3.org/2000/svg"
 width="225.000000pt" height="225.000000pt" viewBox="0 0 225.000000 225.000000"
 preserveAspectRatio="xMidYMid meet">
<metadata>
Created by potrace 1.16, written by Peter Selinger 2001-2019
</metadata>
<g transform="translate(0.000000,225.000000) scale(0.100000,-0.100000)"
fill="#000000" stroke="none">
<path d="M140 2007 c-57 -30 -82 -52 -108 -96 l-27 -46 0 -740 0 -740 27 -46
c15 -25 46 -59 69 -75 l42 -29 971 -2 971 -3 52 30 c36 21 61 45 80 77 l28 48
0 740 0 740 -28 48 c-19 33 -44 56 -80 77 l-52 30 -960 0 c-771 0 -965 -3
-985 -13z m597 -439 c206 -127 381 -231 388 -231 7 0 182 104 388 231 l376
232 70 0 71 0 0 -675 0 -675 -115 0 -115 0 -2 493 -3 493 -320 -203 c-176
-112 -327 -208 -335 -213 -12 -6 -104 48 -350 204 l-335 212 -3 -493 -2 -493
-115 0 -115 0 0 675 0 675 71 0 70 0 376 -232z"/>
</g>
</svg>
