<?xml version="1.0" standalone="no"?>
<!DOCTYPE svg PUBLIC "-//W3C//DTD SVG 20010904//EN"
 "http://www.w3.org/TR/2001/REC-SVG-20010904/DTD/svg10.dtd">
<svg version="1.0" xmlns="http://www.w3.org/2000/svg"
 width="500.000000pt" height="500.000000pt" viewBox="0 0 500.000000 500.000000"
 preserveAspectRatio="xMidYMid meet">
<metadata>
Created by potrace 1.16, written by Peter Selinger 2001-2019
</metadata>
<g transform="translate(0.000000,500.000000) scale(0.100000,-0.100000)"
fill="#000000" stroke="none">
<path d="M2470 4729 c0 -6 -9 -8 -21 -4 -55 18 -507 -56 -569 -93 -14 -8 -37
-26 -52 -40 -15 -13 -49 -32 -76 -41 -89 -31 -162 -83 -269 -196 -117 -123
-199 -239 -298 -425 -144 -272 -235 -526 -315 -885 -29 -127 -38 -178 -71
-385 -5 -36 -10 -96 -10 -135 0 -38 -7 -105 -15 -149 -19 -107 -19 -205 1
-213 9 -3 24 2 34 11 15 14 55 16 317 16 164 0 305 4 312 9 10 6 11 14 5 27
-5 11 -17 34 -26 52 -9 19 -17 41 -17 50 0 9 -7 30 -15 45 -8 15 -17 45 -21
65 -4 20 -11 46 -17 56 -29 57 -26 491 4 561 7 17 56 74 108 127 116 118 161
168 161 180 0 5 13 21 28 36 16 15 31 34 35 42 4 8 16 29 27 45 22 34 40 72
40 86 0 5 4 9 9 9 5 0 12 14 16 30 4 17 11 30 15 30 5 0 12 16 16 35 3 19 10
35 15 35 4 0 11 16 15 35 3 19 12 39 20 46 8 6 14 23 14 38 0 14 7 35 15 45 9
11 15 41 15 68 0 36 4 48 15 48 8 0 15 -5 15 -10 0 -11 73 -82 140 -136 19
-16 40 -33 46 -39 6 -5 40 -35 74 -65 35 -30 72 -63 82 -72 10 -10 22 -18 26
-18 5 0 31 -16 58 -35 27 -19 55 -35 61 -35 7 0 13 -4 13 -9 0 -11 151 -86
193 -96 15 -4 27 -11 27 -16 0 -5 8 -9 18 -9 10 0 27 -7 38 -15 10 -8 29 -15
40 -15 12 0 27 -7 34 -15 7 -8 18 -15 25 -15 7 0 45 -16 84 -35 39 -19 77 -35
86 -35 20 0 19 -5 -10 -48 -38 -56 -34 -72 18 -72 23 0 51 7 61 15 28 21 169
21 186 0 7 -8 22 -15 34 -15 12 0 31 -7 42 -15 10 -8 28 -15 39 -15 11 0 29
-6 40 -14 11 -7 35 -17 53 -21 17 -3 32 -10 32 -15 0 -4 12 -11 28 -14 49 -12
95 -40 144 -88 26 -26 48 -49 48 -52 0 -3 14 -20 30 -38 17 -18 30 -40 30 -48
0 -9 7 -25 15 -36 17 -23 21 -177 5 -219 -5 -14 -13 -58 -17 -98 -3 -39 -12
-82 -20 -96 -7 -15 -13 -37 -13 -51 0 -14 -7 -34 -15 -44 -8 -11 -15 -32 -15
-47 0 -15 -7 -29 -15 -33 -16 -6 -21 -51 -7 -60 5 -3 155 -6 333 -6 l324 -2 3
114 c2 62 -3 142 -9 178 -7 36 -13 92 -15 125 -6 168 -103 593 -184 815 -144
391 -313 670 -539 889 -277 269 -511 382 -866 416 -189 18 -245 19 -245 4z"/>
<path d="M1770 3320 c-8 -5 -41 -21 -72 -35 -32 -15 -58 -31 -58 -36 0 -5 -7
-9 -15 -9 -16 0 -31 -43 -20 -59 9 -16 31 -13 45 4 7 8 19 15 28 15 8 0 24 8
35 17 16 15 40 18 170 18 129 0 156 -3 177 -17 27 -20 48 -22 68 -9 27 16 -13
65 -85 103 -26 14 -56 18 -145 17 -62 0 -120 -4 -128 -9z"/>
<path d="M1818 3073 c-10 -2 -18 -8 -18 -13 0 -4 -16 -11 -35 -14 -19 -4 -35
-11 -35 -16 0 -5 -10 -12 -22 -16 -37 -11 -137 -93 -153 -125 -9 -16 -20 -29
-25 -29 -6 0 -10 -8 -10 -18 0 -10 -7 -27 -15 -38 -22 -29 -19 -71 5 -79 27
-8 37 0 45 35 4 17 11 30 16 30 5 0 9 5 9 10 0 34 108 144 179 183 45 24 62
27 140 27 66 0 93 -4 105 -15 8 -8 22 -15 31 -15 19 0 32 -10 99 -76 65 -65
74 -76 82 -108 3 -14 10 -26 15 -26 15 0 10 57 -6 70 -8 7 -15 21 -15 31 0 11
-4 19 -9 19 -5 0 -12 8 -16 19 -9 28 -86 104 -125 123 -84 40 -111 48 -167 47
-32 -1 -66 -3 -75 -6z"/>
<path d="M3110 3066 c-14 -8 -44 -24 -68 -35 -45 -22 -56 -30 -100 -72 -33
-31 -72 -84 -72 -99 0 -5 -4 -10 -9 -10 -5 0 -13 -15 -16 -32 -4 -18 -12 -36
-17 -39 -5 -3 -8 -21 -5 -40 l3 -34 8 32 c5 17 14 34 22 37 8 3 14 12 14 20 0
8 6 21 13 28 6 7 23 29 36 48 12 19 39 46 58 60 19 14 40 31 48 38 7 6 20 12
27 12 8 0 23 7 34 15 27 20 206 21 223 1 7 -8 23 -17 36 -20 14 -4 25 -11 25
-16 0 -6 6 -10 12 -10 15 0 65 -55 105 -114 15 -22 31 -43 36 -44 4 -2 10 -21
13 -43 8 -46 16 -54 44 -39 24 13 27 64 5 86 -8 9 -15 24 -15 35 0 11 -7 22
-15 25 -8 4 -15 11 -15 18 0 6 -8 19 -17 28 -10 9 -23 23 -29 30 -42 51 -107
94 -197 132 -46 20 -153 21 -187 2z"/>
<path d="M1840 2983 c-14 -3 -29 -11 -33 -19 -4 -8 -15 -14 -22 -14 -8 0 -15
-7 -15 -15 0 -8 -6 -15 -12 -15 -44 -1 -67 -197 -30 -253 26 -39 94 -97 114
-97 9 0 29 -5 43 -12 21 -9 32 -8 61 5 19 9 44 17 54 17 41 0 18 19 -27 22
-48 3 -75 28 -30 28 22 0 48 16 90 56 14 14 17 15 18 3 2 -27 -3 -44 -17 -52
-18 -11 -18 -27 1 -27 8 0 15 7 15 15 0 8 7 15 15 15 8 0 15 9 15 19 0 11 7
26 15 35 17 17 22 156 5 156 -5 0 -10 9 -10 20 0 11 -23 42 -52 70 -51 49 -53
50 -112 49 -34 -1 -72 -4 -86 -6z"/>
<path d="M3113 2984 c-13 -3 -23 -12 -23 -20 0 -8 -7 -14 -14 -14 -19 0 -67
-63 -83 -109 -38 -109 27 -253 122 -268 19 -3 38 -10 41 -14 8 -14 54 -10 70
6 9 8 24 15 35 15 38 0 18 19 -23 22 -46 3 -67 28 -23 28 24 0 41 11 105 72
17 15 19 15 24 -8 18 -69 42 21 34 127 -2 33 -9 64 -14 67 -5 4 -14 16 -20 27
-6 11 -21 25 -34 32 -12 6 -26 17 -30 23 -8 13 -127 22 -167 14z"/>
<path d="M775 2050 c-11 -18 5 -603 17 -617 6 -7 12 -108 15 -230 2 -120 9
-228 15 -239 8 -17 6 -26 -8 -43 -10 -11 -26 -21 -34 -21 -21 0 -63 -44 -53
-54 5 -4 2 -6 -6 -4 -21 5 -109 -116 -162 -224 -69 -138 -154 -406 -183 -580
l-7 -38 2181 0 c1528 0 2180 3 2180 11 0 5 -5 7 -12 3 -6 -4 -8 -3 -4 4 19 32
-83 355 -174 548 -88 185 -170 304 -211 304 -28 0 -42 26 -35 67 4 21 11 121
16 223 9 188 15 264 23 278 3 4 8 93 12 197 3 105 11 205 17 223 7 24 6 58 -3
118 -10 71 -15 84 -31 84 -10 0 -21 -7 -24 -15 -4 -8 -12 -15 -20 -15 -8 0
-14 -10 -14 -22 0 -13 -3 -33 -6 -45 -4 -16 0 -23 15 -28 18 -5 19 -8 7 -21
-8 -8 -22 -14 -30 -14 -18 0 -20 -8 -7 -29 6 -9 4 -22 -6 -37 -17 -26 -13
-116 5 -122 7 -2 12 -17 12 -32 0 -16 4 -32 10 -35 6 -3 10 -10 10 -16 0 -5
-4 -9 -10 -9 -5 0 -10 7 -10 15 0 8 -7 15 -15 15 -9 0 -15 -9 -15 -25 0 -16
-6 -25 -15 -25 -10 0 -15 -11 -15 -35 0 -24 5 -35 15 -35 8 0 15 -7 15 -15 0
-7 8 -19 18 -24 9 -6 11 -11 5 -11 -7 0 -13 -11 -13 -25 0 -18 -5 -25 -20 -25
-15 0 -20 -7 -20 -26 0 -18 -6 -28 -21 -31 -12 -4 -18 -11 -15 -20 3 -8 6 -21
6 -29 0 -8 7 -14 16 -14 12 0 15 -9 14 -37 -3 -58 -1 -63 20 -63 13 0 18 -5
14 -15 -4 -8 -1 -15 5 -15 6 0 11 -7 11 -15 0 -8 -4 -15 -10 -15 -5 0 -10 -11
-10 -24 0 -13 -6 -27 -12 -29 -10 -4 -10 -6 0 -6 17 -1 15 -31 -3 -31 -8 0
-15 7 -15 16 0 11 -8 14 -32 12 -31 -3 -53 -28 -25 -28 18 0 29 -38 21 -77 -4
-21 0 -32 15 -42 19 -14 19 -15 -5 -33 -15 -12 -31 -17 -44 -13 -14 4 -20 2
-20 -8 0 -8 11 -18 25 -21 27 -7 34 -26 10 -26 -19 0 -20 -29 -1 -36 15 -6 19
-64 4 -64 -21 0 -5 -29 22 -40 33 -14 39 -34 14 -44 -22 -9 -24 -8 -24 9 0 9
-9 15 -24 15 -20 0 -25 -6 -28 -35 -3 -30 -1 -34 21 -37 21 -3 25 -9 28 -45 4
-38 2 -43 -21 -49 -31 -7 -37 -22 -26 -69 7 -30 6 -36 -7 -31 -8 3 -19 6 -24
6 -5 0 -9 7 -9 15 0 8 -7 15 -16 15 -13 0 -15 -7 -11 -36 3 -20 14 -42 24 -50
17 -13 17 -15 2 -27 -10 -7 -19 -36 -24 -73 -5 -51 -4 -62 9 -67 25 -10 19
-27 -9 -27 -16 0 -25 -6 -25 -15 0 -8 -9 -15 -20 -15 -17 0 -20 7 -20 45 0 33
-4 45 -15 45 -12 0 -15 -14 -15 -70 l0 -69 -32 -5 c-175 -28 -346 -31 -1615
-31 -1004 0 -1275 3 -1285 12 -6 7 -31 13 -54 13 -48 0 -67 16 -34 28 20 8 21
10 7 24 -9 9 -17 36 -19 61 -2 25 -5 45 -8 45 -29 -2 -41 4 -38 19 2 10 9 17
16 16 8 -2 9 7 5 27 -4 23 -2 30 11 30 9 0 16 7 16 15 0 8 -7 15 -15 15 -8 0
-15 5 -15 11 0 6 -7 17 -15 26 -8 8 -12 20 -8 26 10 16 13 34 12 77 0 19 0 65
0 103 -1 37 -5 67 -10 67 -5 0 -9 -21 -9 -47 0 -34 -3 -44 -11 -36 -12 12 -7
174 6 226 6 21 4 27 -9 27 -18 0 -22 15 -6 25 13 8 13 152 0 160 -7 4 -6 13 1
26 6 11 8 28 4 37 -4 9 -9 42 -11 72 -15 217 -21 335 -17 351 3 11 1 19 -5 19
-5 0 -10 24 -11 53 0 28 -2 145 -3 259 -3 197 -7 234 -23 208z"/>
</g>
</svg>
